<mxfile host="app.diagrams.net" modified="2023-02-16T14:52:55.347Z" agent="5.0 (Windows NT 10.0; Win64; x64) AppleWebKit/537.36 (KHTML, like Gecko) Chrome/110.0.0.0 Safari/537.36 Edg/110.0.1587.46" etag="T4NlOU5WJeNaDPl6YNjQ" version="20.8.20" type="github">
  <diagram name="第 1 页" id="6EuV1YbjiH5evgKRUKve">
    <mxGraphModel dx="1004" dy="590" grid="1" gridSize="10" guides="1" tooltips="1" connect="1" arrows="1" fold="1" page="1" pageScale="1" pageWidth="827" pageHeight="1169" math="0" shadow="0">
      <root>
        <mxCell id="0" />
        <mxCell id="1" parent="0" />
        <mxCell id="YXoqEQ35f0wEZzI_gfGL-56" style="edgeStyle=orthogonalEdgeStyle;rounded=0;orthogonalLoop=1;jettySize=auto;html=1;exitX=1;exitY=0.5;exitDx=0;exitDy=0;entryX=0;entryY=0.5;entryDx=0;entryDy=0;fontSize=17;" edge="1" parent="1" source="YXoqEQ35f0wEZzI_gfGL-57" target="YXoqEQ35f0wEZzI_gfGL-59">
          <mxGeometry relative="1" as="geometry" />
        </mxCell>
        <mxCell id="YXoqEQ35f0wEZzI_gfGL-57" value="↑w0" style="ellipse;whiteSpace=wrap;html=1;fontSize=17;" vertex="1" parent="1">
          <mxGeometry x="60" y="260" width="80" height="50" as="geometry" />
        </mxCell>
        <mxCell id="YXoqEQ35f0wEZzI_gfGL-58" style="edgeStyle=orthogonalEdgeStyle;rounded=0;orthogonalLoop=1;jettySize=auto;html=1;exitX=1;exitY=0.5;exitDx=0;exitDy=0;entryX=0;entryY=0.5;entryDx=0;entryDy=0;fontSize=17;" edge="1" parent="1" source="YXoqEQ35f0wEZzI_gfGL-59" target="YXoqEQ35f0wEZzI_gfGL-62">
          <mxGeometry relative="1" as="geometry" />
        </mxCell>
        <mxCell id="YXoqEQ35f0wEZzI_gfGL-59" value="&lt;span style=&quot;font-family: &amp;quot;Times New Roman&amp;quot;;&quot;&gt;↑r0&lt;/span&gt;" style="ellipse;whiteSpace=wrap;html=1;fontSize=17;" vertex="1" parent="1">
          <mxGeometry x="205" y="260" width="80" height="50" as="geometry" />
        </mxCell>
        <mxCell id="YXoqEQ35f0wEZzI_gfGL-60" style="edgeStyle=orthogonalEdgeStyle;rounded=0;orthogonalLoop=1;jettySize=auto;html=1;exitX=1;exitY=0.5;exitDx=0;exitDy=0;entryX=0;entryY=0.5;entryDx=0;entryDy=0;fontSize=17;" edge="1" parent="1" source="YXoqEQ35f0wEZzI_gfGL-62" target="YXoqEQ35f0wEZzI_gfGL-67">
          <mxGeometry relative="1" as="geometry" />
        </mxCell>
        <mxCell id="YXoqEQ35f0wEZzI_gfGL-61" style="edgeStyle=orthogonalEdgeStyle;rounded=0;orthogonalLoop=1;jettySize=auto;html=1;exitX=1;exitY=0;exitDx=0;exitDy=0;entryX=0;entryY=0;entryDx=0;entryDy=0;fontSize=17;" edge="1" parent="1" source="YXoqEQ35f0wEZzI_gfGL-62" target="YXoqEQ35f0wEZzI_gfGL-59">
          <mxGeometry relative="1" as="geometry">
            <Array as="points">
              <mxPoint x="412" y="250" />
              <mxPoint x="217" y="250" />
            </Array>
          </mxGeometry>
        </mxCell>
        <mxCell id="YXoqEQ35f0wEZzI_gfGL-62" value="&lt;span style=&quot;font-family: &amp;quot;Times New Roman&amp;quot;;&quot;&gt;↑w1&lt;/span&gt;" style="ellipse;whiteSpace=wrap;html=1;fontSize=17;" vertex="1" parent="1">
          <mxGeometry x="344" y="260" width="80" height="50" as="geometry" />
        </mxCell>
        <mxCell id="YXoqEQ35f0wEZzI_gfGL-63" value="&amp;lt;0,0,x&amp;gt;" style="text;html=1;strokeColor=none;fillColor=none;align=center;verticalAlign=middle;whiteSpace=wrap;rounded=0;glass=0;fontSize=17;opacity=20;" vertex="1" parent="1">
          <mxGeometry x="140" y="260" width="60" height="30" as="geometry" />
        </mxCell>
        <mxCell id="YXoqEQ35f0wEZzI_gfGL-64" value="&amp;lt;1,0,0&amp;gt;" style="text;html=1;strokeColor=none;fillColor=none;align=center;verticalAlign=middle;whiteSpace=wrap;rounded=0;glass=0;fontSize=17;opacity=20;" vertex="1" parent="1">
          <mxGeometry x="284" y="260" width="60" height="30" as="geometry" />
        </mxCell>
        <mxCell id="YXoqEQ35f0wEZzI_gfGL-65" value="&amp;lt;1,1,0&amp;gt;" style="text;html=1;strokeColor=none;fillColor=none;align=center;verticalAlign=middle;whiteSpace=wrap;rounded=0;glass=0;fontSize=17;opacity=20;" vertex="1" parent="1">
          <mxGeometry x="424" y="260" width="60" height="30" as="geometry" />
        </mxCell>
        <mxCell id="YXoqEQ35f0wEZzI_gfGL-66" style="edgeStyle=orthogonalEdgeStyle;rounded=0;orthogonalLoop=1;jettySize=auto;html=1;exitX=1;exitY=0.5;exitDx=0;exitDy=0;entryX=0;entryY=0.5;entryDx=0;entryDy=0;fontSize=17;" edge="1" parent="1" source="YXoqEQ35f0wEZzI_gfGL-67" target="YXoqEQ35f0wEZzI_gfGL-74">
          <mxGeometry relative="1" as="geometry" />
        </mxCell>
        <mxCell id="YXoqEQ35f0wEZzI_gfGL-67" value="&lt;span style=&quot;font-family: &amp;quot;Times New Roman&amp;quot;;&quot;&gt;↑r1&lt;/span&gt;" style="ellipse;whiteSpace=wrap;html=1;fontSize=17;" vertex="1" parent="1">
          <mxGeometry x="484" y="260" width="80" height="50" as="geometry" />
        </mxCell>
        <mxCell id="YXoqEQ35f0wEZzI_gfGL-68" value="" style="rounded=1;whiteSpace=wrap;html=1;glass=0;fontSize=17;strokeColor=#000000;opacity=20;" vertex="1" parent="1">
          <mxGeometry x="205" y="235" width="225" height="85" as="geometry" />
        </mxCell>
        <mxCell id="YXoqEQ35f0wEZzI_gfGL-69" value="1" style="text;html=1;strokeColor=none;fillColor=none;align=center;verticalAlign=middle;whiteSpace=wrap;rounded=0;glass=0;fontSize=17;opacity=20;" vertex="1" parent="1">
          <mxGeometry x="70" y="310" width="60" height="30" as="geometry" />
        </mxCell>
        <mxCell id="YXoqEQ35f0wEZzI_gfGL-70" value="2" style="text;html=1;strokeColor=none;fillColor=none;align=center;verticalAlign=middle;whiteSpace=wrap;rounded=0;glass=0;fontSize=17;opacity=20;" vertex="1" parent="1">
          <mxGeometry x="205" y="310" width="60" height="30" as="geometry" />
        </mxCell>
        <mxCell id="YXoqEQ35f0wEZzI_gfGL-71" value="3" style="text;html=1;strokeColor=none;fillColor=none;align=center;verticalAlign=middle;whiteSpace=wrap;rounded=0;glass=0;fontSize=17;opacity=20;" vertex="1" parent="1">
          <mxGeometry x="354" y="310" width="60" height="30" as="geometry" />
        </mxCell>
        <mxCell id="YXoqEQ35f0wEZzI_gfGL-72" style="edgeStyle=orthogonalEdgeStyle;rounded=0;orthogonalLoop=1;jettySize=auto;html=1;exitX=1;exitY=0;exitDx=0;exitDy=0;entryX=0;entryY=0;entryDx=0;entryDy=0;fontSize=17;" edge="1" parent="1" source="YXoqEQ35f0wEZzI_gfGL-74" target="YXoqEQ35f0wEZzI_gfGL-67">
          <mxGeometry relative="1" as="geometry">
            <Array as="points">
              <mxPoint x="688" y="250" />
              <mxPoint x="496" y="250" />
            </Array>
          </mxGeometry>
        </mxCell>
        <mxCell id="YXoqEQ35f0wEZzI_gfGL-73" style="edgeStyle=orthogonalEdgeStyle;rounded=0;orthogonalLoop=1;jettySize=auto;html=1;exitX=1;exitY=0.5;exitDx=0;exitDy=0;entryX=1;entryY=0.5;entryDx=0;entryDy=0;fontSize=17;" edge="1" parent="1" source="YXoqEQ35f0wEZzI_gfGL-74" target="YXoqEQ35f0wEZzI_gfGL-80">
          <mxGeometry relative="1" as="geometry" />
        </mxCell>
        <mxCell id="YXoqEQ35f0wEZzI_gfGL-74" value="&lt;span style=&quot;font-family: &amp;quot;Times New Roman&amp;quot;;&quot;&gt;↑w0&lt;/span&gt;" style="ellipse;whiteSpace=wrap;html=1;fontSize=17;" vertex="1" parent="1">
          <mxGeometry x="620" y="260" width="80" height="50" as="geometry" />
        </mxCell>
        <mxCell id="YXoqEQ35f0wEZzI_gfGL-75" value="&amp;lt;0,1,1&amp;gt;" style="text;html=1;strokeColor=none;fillColor=none;align=center;verticalAlign=middle;whiteSpace=wrap;rounded=0;glass=0;fontSize=17;opacity=20;" vertex="1" parent="1">
          <mxGeometry x="560" y="260" width="60" height="30" as="geometry" />
        </mxCell>
        <mxCell id="YXoqEQ35f0wEZzI_gfGL-76" value="" style="rounded=1;whiteSpace=wrap;html=1;glass=0;fontSize=17;strokeColor=#000000;opacity=20;" vertex="1" parent="1">
          <mxGeometry x="484" y="235" width="225" height="85" as="geometry" />
        </mxCell>
        <mxCell id="YXoqEQ35f0wEZzI_gfGL-77" value="4" style="text;html=1;strokeColor=none;fillColor=none;align=center;verticalAlign=middle;whiteSpace=wrap;rounded=0;glass=0;fontSize=17;opacity=20;" vertex="1" parent="1">
          <mxGeometry x="494" y="310" width="60" height="30" as="geometry" />
        </mxCell>
        <mxCell id="YXoqEQ35f0wEZzI_gfGL-78" value="5" style="text;html=1;strokeColor=none;fillColor=none;align=center;verticalAlign=middle;whiteSpace=wrap;rounded=0;glass=0;fontSize=17;opacity=20;" vertex="1" parent="1">
          <mxGeometry x="630" y="310" width="60" height="30" as="geometry" />
        </mxCell>
        <mxCell id="YXoqEQ35f0wEZzI_gfGL-79" style="edgeStyle=orthogonalEdgeStyle;rounded=0;orthogonalLoop=1;jettySize=auto;html=1;exitX=0;exitY=0.5;exitDx=0;exitDy=0;fontSize=18;" edge="1" parent="1" source="YXoqEQ35f0wEZzI_gfGL-80" target="YXoqEQ35f0wEZzI_gfGL-92">
          <mxGeometry relative="1" as="geometry" />
        </mxCell>
        <mxCell id="YXoqEQ35f0wEZzI_gfGL-80" value="&lt;span style=&quot;font-family: &amp;quot;Times New Roman&amp;quot;;&quot;&gt;&lt;font style=&quot;font-size: 18px;&quot;&gt;↕&lt;/font&gt;&lt;/span&gt;r0" style="ellipse;whiteSpace=wrap;html=1;fontSize=17;" vertex="1" parent="1">
          <mxGeometry x="620" y="370" width="80" height="50" as="geometry" />
        </mxCell>
        <mxCell id="YXoqEQ35f0wEZzI_gfGL-81" value="&amp;lt;0,0,1&amp;gt;" style="text;html=1;strokeColor=none;fillColor=none;align=center;verticalAlign=middle;whiteSpace=wrap;rounded=0;glass=0;fontSize=17;opacity=20;rotation=90;" vertex="1" parent="1">
          <mxGeometry x="709" y="330" width="60" height="30" as="geometry" />
        </mxCell>
        <mxCell id="YXoqEQ35f0wEZzI_gfGL-82" style="edgeStyle=orthogonalEdgeStyle;rounded=0;orthogonalLoop=1;jettySize=auto;html=1;exitX=0;exitY=0.5;exitDx=0;exitDy=0;entryX=1;entryY=0.5;entryDx=0;entryDy=0;fontSize=18;" edge="1" parent="1" source="YXoqEQ35f0wEZzI_gfGL-84" target="YXoqEQ35f0wEZzI_gfGL-86">
          <mxGeometry relative="1" as="geometry" />
        </mxCell>
        <mxCell id="YXoqEQ35f0wEZzI_gfGL-83" style="edgeStyle=orthogonalEdgeStyle;rounded=0;orthogonalLoop=1;jettySize=auto;html=1;exitX=0;exitY=0;exitDx=0;exitDy=0;entryX=1;entryY=0;entryDx=0;entryDy=0;fontSize=18;" edge="1" parent="1" source="YXoqEQ35f0wEZzI_gfGL-84" target="YXoqEQ35f0wEZzI_gfGL-92">
          <mxGeometry relative="1" as="geometry">
            <Array as="points">
              <mxPoint x="362" y="360" />
              <mxPoint x="558" y="360" />
            </Array>
          </mxGeometry>
        </mxCell>
        <mxCell id="YXoqEQ35f0wEZzI_gfGL-84" value="&lt;span style=&quot;font-family: &amp;quot;Times New Roman&amp;quot;; font-size: 22px;&quot;&gt;↓w1&lt;/span&gt;" style="ellipse;whiteSpace=wrap;html=1;fontSize=17;" vertex="1" parent="1">
          <mxGeometry x="350" y="370" width="80" height="50" as="geometry" />
        </mxCell>
        <mxCell id="YXoqEQ35f0wEZzI_gfGL-85" style="edgeStyle=orthogonalEdgeStyle;rounded=0;orthogonalLoop=1;jettySize=auto;html=1;exitX=0;exitY=0.5;exitDx=0;exitDy=0;fontSize=18;" edge="1" parent="1" source="YXoqEQ35f0wEZzI_gfGL-86" target="YXoqEQ35f0wEZzI_gfGL-90">
          <mxGeometry relative="1" as="geometry" />
        </mxCell>
        <mxCell id="YXoqEQ35f0wEZzI_gfGL-86" value="&lt;span style=&quot;font-family: &amp;quot;Times New Roman&amp;quot;; font-size: 22px;&quot;&gt;↓r1&lt;/span&gt;" style="ellipse;whiteSpace=wrap;html=1;fontSize=17;" vertex="1" parent="1">
          <mxGeometry x="205" y="370" width="80" height="50" as="geometry" />
        </mxCell>
        <mxCell id="YXoqEQ35f0wEZzI_gfGL-87" value="&lt;span style=&quot;font-family: &amp;quot;Times New Roman&amp;quot;;&quot;&gt;&lt;font style=&quot;font-size: 18px;&quot;&gt;↕&lt;/font&gt;&lt;/span&gt;r0" style="ellipse;whiteSpace=wrap;html=1;fontSize=17;" vertex="1" parent="1">
          <mxGeometry x="70" y="470" width="80" height="50" as="geometry" />
        </mxCell>
        <mxCell id="YXoqEQ35f0wEZzI_gfGL-88" style="edgeStyle=orthogonalEdgeStyle;rounded=0;orthogonalLoop=1;jettySize=auto;html=1;exitX=0;exitY=0.5;exitDx=0;exitDy=0;entryX=0;entryY=0.5;entryDx=0;entryDy=0;fontSize=18;" edge="1" parent="1" source="YXoqEQ35f0wEZzI_gfGL-90" target="YXoqEQ35f0wEZzI_gfGL-87">
          <mxGeometry relative="1" as="geometry" />
        </mxCell>
        <mxCell id="YXoqEQ35f0wEZzI_gfGL-89" style="edgeStyle=orthogonalEdgeStyle;rounded=0;orthogonalLoop=1;jettySize=auto;html=1;exitX=0;exitY=0;exitDx=0;exitDy=0;entryX=1;entryY=0;entryDx=0;entryDy=0;fontSize=18;" edge="1" parent="1" source="YXoqEQ35f0wEZzI_gfGL-90" target="YXoqEQ35f0wEZzI_gfGL-86">
          <mxGeometry relative="1" as="geometry">
            <Array as="points">
              <mxPoint x="82" y="360" />
              <mxPoint x="273" y="360" />
            </Array>
          </mxGeometry>
        </mxCell>
        <mxCell id="YXoqEQ35f0wEZzI_gfGL-90" value="&lt;span style=&quot;font-family: &amp;quot;Times New Roman&amp;quot;; font-size: 22px;&quot;&gt;↓w0&lt;/span&gt;" style="ellipse;whiteSpace=wrap;html=1;fontSize=17;" vertex="1" parent="1">
          <mxGeometry x="70" y="370" width="80" height="50" as="geometry" />
        </mxCell>
        <mxCell id="YXoqEQ35f0wEZzI_gfGL-91" style="edgeStyle=orthogonalEdgeStyle;rounded=0;orthogonalLoop=1;jettySize=auto;html=1;exitX=0;exitY=0.5;exitDx=0;exitDy=0;entryX=1;entryY=0.5;entryDx=0;entryDy=0;fontSize=18;" edge="1" parent="1" source="YXoqEQ35f0wEZzI_gfGL-92" target="YXoqEQ35f0wEZzI_gfGL-84">
          <mxGeometry relative="1" as="geometry" />
        </mxCell>
        <mxCell id="YXoqEQ35f0wEZzI_gfGL-92" value="&lt;span style=&quot;font-family: &amp;quot;Times New Roman&amp;quot;; font-size: 22px;&quot;&gt;↓r0&lt;/span&gt;" style="ellipse;whiteSpace=wrap;html=1;fontSize=17;" vertex="1" parent="1">
          <mxGeometry x="490" y="370" width="80" height="50" as="geometry" />
        </mxCell>
        <mxCell id="YXoqEQ35f0wEZzI_gfGL-93" value="&amp;lt;0,0,0&amp;gt;" style="text;html=1;strokeColor=none;fillColor=none;align=center;verticalAlign=middle;whiteSpace=wrap;rounded=0;glass=0;fontSize=18;opacity=20;" vertex="1" parent="1">
          <mxGeometry x="565" y="360" width="60" height="30" as="geometry" />
        </mxCell>
        <mxCell id="YXoqEQ35f0wEZzI_gfGL-94" value="&amp;lt;0,0,1&amp;gt;" style="text;html=1;strokeColor=none;fillColor=none;align=center;verticalAlign=middle;whiteSpace=wrap;rounded=0;glass=0;fontSize=18;opacity=20;" vertex="1" parent="1">
          <mxGeometry x="430" y="370" width="60" height="30" as="geometry" />
        </mxCell>
        <mxCell id="YXoqEQ35f0wEZzI_gfGL-95" value="&amp;lt;0,1,1&amp;gt;" style="text;html=1;strokeColor=none;fillColor=none;align=center;verticalAlign=middle;whiteSpace=wrap;rounded=0;glass=0;fontSize=18;opacity=20;" vertex="1" parent="1">
          <mxGeometry x="287.5" y="370" width="60" height="30" as="geometry" />
        </mxCell>
        <mxCell id="YXoqEQ35f0wEZzI_gfGL-96" value="" style="rounded=1;whiteSpace=wrap;html=1;glass=0;fontSize=17;strokeColor=#000000;opacity=20;" vertex="1" parent="1">
          <mxGeometry x="350.5" y="342.5" width="219" height="85" as="geometry" />
        </mxCell>
        <mxCell id="YXoqEQ35f0wEZzI_gfGL-97" value="&amp;lt;1,1,0&amp;gt;" style="text;html=1;strokeColor=none;fillColor=none;align=center;verticalAlign=middle;whiteSpace=wrap;rounded=0;glass=0;fontSize=18;opacity=20;" vertex="1" parent="1">
          <mxGeometry x="150" y="370" width="60" height="30" as="geometry" />
        </mxCell>
        <mxCell id="YXoqEQ35f0wEZzI_gfGL-98" value="&amp;lt;1,0,0&amp;gt;" style="text;html=1;strokeColor=none;fillColor=none;align=center;verticalAlign=middle;whiteSpace=wrap;rounded=0;glass=0;fontSize=18;opacity=20;rotation=270;" vertex="1" parent="1">
          <mxGeometry x="10" y="428" width="60" height="30" as="geometry" />
        </mxCell>
        <mxCell id="YXoqEQ35f0wEZzI_gfGL-99" value="" style="endArrow=classic;html=1;rounded=0;fontSize=18;" edge="1" parent="1">
          <mxGeometry width="50" height="50" relative="1" as="geometry">
            <mxPoint x="10" y="280" as="sourcePoint" />
            <mxPoint x="60" y="280" as="targetPoint" />
          </mxGeometry>
        </mxCell>
        <mxCell id="YXoqEQ35f0wEZzI_gfGL-100" value="" style="endArrow=classic;html=1;rounded=0;fontSize=18;" edge="1" parent="1" source="YXoqEQ35f0wEZzI_gfGL-87">
          <mxGeometry width="50" height="50" relative="1" as="geometry">
            <mxPoint x="150" y="545" as="sourcePoint" />
            <mxPoint x="200" y="495" as="targetPoint" />
          </mxGeometry>
        </mxCell>
        <mxCell id="YXoqEQ35f0wEZzI_gfGL-101" value="" style="rounded=1;whiteSpace=wrap;html=1;glass=0;fontSize=17;strokeColor=#000000;opacity=20;" vertex="1" parent="1">
          <mxGeometry x="70" y="343" width="219" height="85" as="geometry" />
        </mxCell>
        <mxCell id="YXoqEQ35f0wEZzI_gfGL-102" value="&amp;lt;x&amp;gt;" style="text;html=1;strokeColor=none;fillColor=none;align=center;verticalAlign=middle;whiteSpace=wrap;rounded=0;glass=0;fontSize=18;opacity=20;" vertex="1" parent="1">
          <mxGeometry x="10" y="260" width="40" height="30" as="geometry" />
        </mxCell>
        <mxCell id="YXoqEQ35f0wEZzI_gfGL-103" value="&amp;lt;0&amp;gt;" style="text;html=1;strokeColor=none;fillColor=none;align=center;verticalAlign=middle;whiteSpace=wrap;rounded=0;glass=0;fontSize=18;opacity=20;" vertex="1" parent="1">
          <mxGeometry x="140" y="470" width="60" height="30" as="geometry" />
        </mxCell>
        <mxCell id="YXoqEQ35f0wEZzI_gfGL-104" value="6" style="text;html=1;strokeColor=none;fillColor=none;align=center;verticalAlign=middle;whiteSpace=wrap;rounded=0;glass=0;fontSize=18;opacity=20;" vertex="1" parent="1">
          <mxGeometry x="630" y="420" width="60" height="30" as="geometry" />
        </mxCell>
        <mxCell id="YXoqEQ35f0wEZzI_gfGL-105" value="7" style="text;html=1;strokeColor=none;fillColor=none;align=center;verticalAlign=middle;whiteSpace=wrap;rounded=0;glass=0;fontSize=18;opacity=20;" vertex="1" parent="1">
          <mxGeometry x="505" y="420" width="60" height="30" as="geometry" />
        </mxCell>
        <mxCell id="YXoqEQ35f0wEZzI_gfGL-106" value="8" style="text;html=1;strokeColor=none;fillColor=none;align=center;verticalAlign=middle;whiteSpace=wrap;rounded=0;glass=0;fontSize=18;opacity=20;" vertex="1" parent="1">
          <mxGeometry x="364" y="420" width="60" height="30" as="geometry" />
        </mxCell>
        <mxCell id="YXoqEQ35f0wEZzI_gfGL-107" value="9" style="text;html=1;strokeColor=none;fillColor=none;align=center;verticalAlign=middle;whiteSpace=wrap;rounded=0;glass=0;fontSize=18;opacity=20;" vertex="1" parent="1">
          <mxGeometry x="224" y="420" width="60" height="30" as="geometry" />
        </mxCell>
        <mxCell id="YXoqEQ35f0wEZzI_gfGL-108" value="10" style="text;html=1;strokeColor=none;fillColor=none;align=center;verticalAlign=middle;whiteSpace=wrap;rounded=0;glass=0;fontSize=18;opacity=20;" vertex="1" parent="1">
          <mxGeometry x="80" y="420" width="60" height="30" as="geometry" />
        </mxCell>
        <mxCell id="YXoqEQ35f0wEZzI_gfGL-109" value="11" style="text;html=1;strokeColor=none;fillColor=none;align=center;verticalAlign=middle;whiteSpace=wrap;rounded=0;glass=0;fontSize=18;opacity=20;" vertex="1" parent="1">
          <mxGeometry x="80" y="520" width="60" height="30" as="geometry" />
        </mxCell>
        <mxCell id="YXoqEQ35f0wEZzI_gfGL-110" style="edgeStyle=orthogonalEdgeStyle;rounded=0;orthogonalLoop=1;jettySize=auto;html=1;exitX=0.75;exitY=0;exitDx=0;exitDy=0;fontSize=18;" edge="1" parent="1" source="YXoqEQ35f0wEZzI_gfGL-71">
          <mxGeometry relative="1" as="geometry">
            <mxPoint x="410" y="325" as="targetPoint" />
          </mxGeometry>
        </mxCell>
      </root>
    </mxGraphModel>
  </diagram>
</mxfile>
